<?xml version="1.0" encoding="UTF-8"?>
<svg fill="none" viewBox="0 0 87 40" xmlns="http://www.w3.org/2000/svg">
<path d="m21.705 22.96-3.1307-7.3099c-1.0602-2.48-3.0107-2.58-4.321-0.22l-1.8904 3.4099c-0.9602 1.73-2.7506 1.88-3.9909 0.33l-0.22005-0.28c-1.2903-1.6199-3.1107-1.4199-4.0409 0.43l-1.7204 3.45c-1.2103 2.4 0.54013 5.23 3.2207 5.23h12.763c2.6006 0 4.351-2.65 3.3307-5.04z" stroke="url(#a)" stroke-linecap="round" stroke-linejoin="round" stroke-width="2.5"/>
<path d="m6.9914 14c1.6572 0 3.0007-1.3432 3.0007-3 0-1.6569-1.3434-3-3.0007-3-1.6572 0-3.0007 1.3431-3.0007 3 0 1.6568 1.3435 3 3.0007 3z" stroke="url(#a)" stroke-linecap="round" stroke-linejoin="round" stroke-width="2.5"/>
<g filter="url(#c)">
<path d="m40.896 19.936c0 1.44-0.504 2.648-1.512 3.624-0.992 0.96-2.224 1.44-3.696 1.44-1.488 0-2.728-0.472-3.72-1.416-0.992-0.96-1.488-2.176-1.488-3.648 0-1.984 0.688-3.448 2.064-4.392 0.208-0.128 0.4-0.192 0.576-0.192 0.624 0 0.936 0.328 0.936 0.984 0 0.304-0.136 0.56-0.408 0.768-0.864 0.576-1.296 1.52-1.296 2.832 0 0.896 0.328 1.656 0.984 2.28 0.672 0.608 1.456 0.912 2.352 0.912s1.672-0.304 2.328-0.912c0.672-0.624 1.008-1.384 1.008-2.28 0-1.552-0.416-2.464-1.248-2.736-0.272-0.112-0.584-0.056-0.936 0.168-0.336 0.224-0.552 0.344-0.648 0.36-0.272 0-0.512-0.096-0.72-0.288-0.192-0.208-0.288-0.44-0.288-0.696 0-0.224 0.088-0.44 0.264-0.648 0.528-0.56 1.2-0.84 2.016-0.84 1.312 0 2.288 0.72 2.928 2.16 0.336 0.752 0.504 1.592 0.504 2.52zm7.2729 12.696-0.192 0.288c-2.176 2.576-4.8 3.864-7.872 3.864-2.64 0-3.96-1.264-3.96-3.792l0.048-8.136c1.312 0.384 1.96 1.16 1.944 2.328l-0.072 6.192c0 0.144 8e-3 0.256 0.024 0.336 0.112 0.656 0.904 1.024 2.376 1.104 3.456 0.128 6.024-0.6 7.704-2.184zm-11.904-19.776c-0.688 0-1.272-0.24-1.752-0.72s-0.72-1.072-0.72-1.776c0-0.72 0.232-1.32 0.696-1.8s1.056-0.72 1.776-0.72c0.736 0 1.352 0.24 1.848 0.72 0.48 0.48 0.72 1.08 0.72 1.8 0 0.704-0.248 1.296-0.744 1.776-0.512 0.48-1.12 0.72-1.824 0.72zm0-3.288c-0.496 0-0.744 0.264-0.744 0.792s0.248 0.792 0.744 0.792c0.56 0 0.84-0.264 0.84-0.792s-0.28-0.792-0.84-0.792zm27.648 23.328-0.192 0.264c-1.136 1.264-2.264 2.16-3.384 2.688-1.216 0.608-2.624 0.912-4.224 0.912-2.784 0-4.176-1.064-4.176-3.192l0.048-13.632c0-0.928-0.328-1.688-0.984-2.28-0.656-0.608-1.44-0.912-2.352-0.912-0.896 0-1.68 0.304-2.352 0.912-0.656 0.608-0.984 1.368-0.984 2.28 0 0.368 0.08 0.744 0.24 1.128 0.528-0.976 1.336-1.464 2.424-1.464 0.752 0 1.392 0.264 1.92 0.792 0.544 0.528 0.816 1.16 0.816 1.896 0 0.784-0.264 1.432-0.792 1.944-0.512 0.512-1.16 0.768-1.944 0.768-0.56 0-1.064-0.152-1.512-0.456-0.912-0.4-1.648-1.016-2.208-1.848-0.544-0.832-0.816-1.752-0.816-2.76 0-1.456 0.496-2.664 1.488-3.624 1.008-0.976 2.248-1.464 3.72-1.464s2.704 0.488 3.696 1.464c1.008 0.96 1.512 2.176 1.512 3.648v13.944c0.08 0.608 0.752 0.936 2.016 0.984 3.76 0.144 6.44-0.52 8.04-1.992zm-15.072-10.608c0-0.528-0.288-0.792-0.864-0.792-0.56 0-0.84 0.264-0.84 0.792 0 0.464 0.336 0.736 1.008 0.816 0.464-0.112 0.696-0.384 0.696-0.816zm6.4558-13.44c0 1.728-0.592 3.16-1.776 4.296-1.2 1.136-2.664 1.704-4.392 1.704s-3.184-0.56-4.368-1.68c-1.184-1.136-1.776-2.576-1.776-4.32s0.592-3.176 1.776-4.296c1.168-1.12 2.624-1.68 4.368-1.68s3.208 0.568 4.392 1.704c1.184 1.12 1.776 2.544 1.776 4.272zm-1.896 0c0-1.152-0.416-2.12-1.248-2.904-0.848-0.8-1.856-1.2-3.024-1.2-1.2 0-2.208 0.384-3.024 1.152-0.832 0.768-1.248 1.752-1.248 2.952 0 1.216 0.416 2.208 1.248 2.976 0.816 0.768 1.824 1.152 3.024 1.152 1.168 0 2.176-0.392 3.024-1.176 0.832-0.784 1.248-1.768 1.248-2.952zm13.511 11.088c0 1.44-0.504 2.648-1.512 3.624-0.992 0.96-2.224 1.44-3.696 1.44-1.488 0-2.728-0.472-3.72-1.416-0.992-0.96-1.488-2.176-1.488-3.648 0-1.984 0.688-3.448 2.064-4.392 0.208-0.128 0.4-0.192 0.576-0.192 0.624 0 0.936 0.328 0.936 0.984 0 0.304-0.136 0.56-0.408 0.768-0.864 0.576-1.296 1.52-1.296 2.832 0 0.896 0.328 1.656 0.984 2.28 0.672 0.608 1.456 0.912 2.352 0.912s1.672-0.304 2.328-0.912c0.672-0.624 1.008-1.384 1.008-2.28 0-1.552-0.416-2.464-1.248-2.736-0.272-0.112-0.584-0.056-0.936 0.168-0.336 0.224-0.552 0.344-0.648 0.36-0.272 0-0.512-0.096-0.72-0.288-0.192-0.208-0.288-0.44-0.288-0.696 0-0.224 0.088-0.44 0.264-0.648 0.528-0.56 1.2-0.84 2.016-0.84 1.312 0 2.288 0.72 2.928 2.16 0.336 0.752 0.504 1.592 0.504 2.52zm15.721-7.032c-1.712-1.872-4.056-3.6-7.032-5.184-1.184-0.624-2.76-1.128-4.728-1.512-1.76-0.368-3.416-0.568-4.968-0.6-4.656-0.112-6.984 1.072-6.984 3.552 0 2.176 1.024 3.392 3.072 3.648 0.688 0.096 1.272-0.08 1.752-0.528 0.464-0.448 0.664-1.032 0.6-1.752 0.064-0.016 0.136-0.024 0.216-0.024 0.288 0 0.56 0.152 0.816 0.456 0.24 0.288 0.36 0.584 0.36 0.888 0 0.08-0.024 0.184-0.072 0.312-0.48 1.392-1.744 2.088-3.792 2.088-1.44 0-2.6-0.48-3.48-1.44-0.896-0.96-1.344-2.176-1.344-3.648 0-2.048 0.952-3.528 2.856-4.44 1.408-0.688 3.256-1.032 5.544-1.032 3.712 0 6.68 0.6 8.904 1.8 3.968 2.144 6.696 4.504 8.184 7.08 0.064 0.112 0.096 0.224 0.096 0.336z" fill="url(#b)"/>
</g>
<defs>
<filter id="c" x="29.48" y="2.872" width="54.152" height="36.912" color-interpolation-filters="sRGB" filterUnits="userSpaceOnUse">
<feFlood flood-opacity="0" result="BackgroundImageFix"/>
<feColorMatrix in="SourceAlpha" result="hardAlpha" values="0 0 0 0 0 0 0 0 0 0 0 0 0 0 0 0 0 0 127 0"/>
<feOffset dy="2"/>
<feGaussianBlur stdDeviation="0.5"/>
<feComposite in2="hardAlpha" operator="out"/>
<feColorMatrix values="0 0 0 0 0 0 0 0 0 0 0 0 0 0 0 0 0 0 0.1 0"/>
<feBlend in2="BackgroundImageFix" result="effect1_dropShadow_991_666"/>
<feBlend in="SourceGraphic" in2="effect1_dropShadow_991_666" result="shape"/>
</filter>
<linearGradient id="a" x1="6.9914" x2="6.9914" y1="8" y2="14" gradientUnits="userSpaceOnUse">
<stop stop-color="#404FD4" offset="0"/>
<stop stop-color="#5A2BC9" offset="1"/>
</linearGradient>
<linearGradient id="b" x1="49.5" x2="49.5" y2="36" gradientUnits="userSpaceOnUse">
<stop stop-color="#3D52D5" offset="0"/>
<stop stop-color="#5B28C8" offset="1"/>
</linearGradient>
</defs>
</svg>
