<?xml version="1.0" encoding="UTF-8"?>
<svg fill="none" viewBox="0 0 58 53" xmlns="http://www.w3.org/2000/svg">
<path d="m30.326 23.049 5.1919-5.1919c1.5469-1.5469 1.5675-4.0969 0.0469-5.6681l-0.0038-0.0038c-0.7762-0.7762-1.7925-1.1644-2.8106-1.1644s-2.0344 0.3882-2.8106 1.1644l-0.9394 0.9394-0.9394-0.9394c-0.7762-0.7762-1.7925-1.1644-2.8106-1.1644s-2.0344 0.3882-2.8106 1.1644l-0.0038 0.0038c-1.5206 1.5712-1.5 4.1212 0.0469 5.6681l5.1919 5.1919c0.7312 0.7312 1.92 0.7312 2.6512 0zm-6.5606-9.5381c0.3975-0.3957 0.9244-0.615 1.485-0.615s1.0875 0.2193 1.485 0.615l2.265 2.2649 2.265-2.2649c0.3975-0.3957 0.9244-0.615 1.485-0.615s1.0875 0.2193 1.4888 0.6187c0.3956 0.3975 0.6149 0.9244 0.6149 1.485s-0.2193 1.0875-0.6149 1.485l-5.2388 5.2388-5.2387-5.2388c-0.3975-0.3975-0.6151-0.9244-0.6151-1.485s0.2194-1.0875 0.6188-1.4887zm27.735-6.0113h-1.875v-1.875c0-3.1069-2.5181-5.625-5.625-5.625h-30c-3.1069 0-5.625 2.5181-5.625 5.625v1.875h-1.875c-3.1069 0-5.625 2.5181-5.625 5.625v33.75c0 3.1069 2.5181 5.625 5.625 5.625h45c3.1069 0 5.625-2.5181 5.625-5.625v-33.75c0-3.1069-2.5181-5.625-5.625-5.625zm0 1.875c0.6937 0 1.335 0.2025 1.8937 0.53063l-3.7687 3.7688v-4.2994h1.875zm-37.5-7.5h30c2.0681 0 3.75 1.6819 3.75 3.75v9.9244l-18.75 18.75-18.75-18.75v-9.9244c0-2.0681 1.6819-3.75 3.75-3.75zm-7.5 7.5h1.875v4.2994l-3.7688-3.7688c0.55875-0.32813 1.2-0.53063 1.8938-0.53063zm-3.75 37.5v-33.75c0-0.6938 0.2025-1.335 0.53062-1.8938l18.769 18.769-18.769 18.769c-0.32812-0.5587-0.53062-1.2-0.53062-1.8937zm48.75 3.75h-45c-0.69375 0-1.335-0.2025-1.8938-0.5306l18.769-18.769 4.2994 4.2994c0.7331 0.7331 1.92 0.7331 2.6512 0l4.2994-4.2994 18.769 18.769c-0.5587 0.3281-1.2 0.5306-1.8937 0.5306zm3.75-3.75c0 0.6937-0.2025 1.335-0.5306 1.8937l-18.769-18.769 18.769-18.769c0.3281 0.5588 0.5306 1.2 0.5306 1.8938v33.75z" fill="#E83ED5"/>
</svg>
